<mxfile host="app.diagrams.net" agent="Mozilla/5.0 (Windows NT 10.0; Win64; x64) AppleWebKit/537.36 (KHTML, like Gecko) Chrome/128.0.0.0 Safari/537.36 Edg/128.0.0.0" version="24.7.17">
  <diagram name="Page-1" id="74e2e168-ea6b-b213-b513-2b3c1d86103e">
    <mxGraphModel dx="1002" dy="627" grid="1" gridSize="10" guides="1" tooltips="1" connect="1" arrows="1" fold="1" page="1" pageScale="1" pageWidth="1100" pageHeight="850" background="none" math="0" shadow="0">
      <root>
        <mxCell id="0" />
        <mxCell id="1" parent="0" />
        <mxCell id="9pPh57trMKF2vFBdPvX8-41" style="edgeStyle=orthogonalEdgeStyle;rounded=0;orthogonalLoop=1;jettySize=auto;html=1;exitX=0.5;exitY=1;exitDx=0;exitDy=0;entryX=0.5;entryY=0;entryDx=0;entryDy=0;" edge="1" parent="1" source="9pPh57trMKF2vFBdPvX8-12" target="9pPh57trMKF2vFBdPvX8-17">
          <mxGeometry relative="1" as="geometry" />
        </mxCell>
        <mxCell id="9pPh57trMKF2vFBdPvX8-49" style="edgeStyle=orthogonalEdgeStyle;rounded=0;orthogonalLoop=1;jettySize=auto;html=1;exitX=1;exitY=0.5;exitDx=0;exitDy=0;entryX=1;entryY=0.5;entryDx=0;entryDy=0;" edge="1" parent="1" source="9pPh57trMKF2vFBdPvX8-12" target="9pPh57trMKF2vFBdPvX8-37">
          <mxGeometry relative="1" as="geometry">
            <Array as="points">
              <mxPoint x="545" y="260" />
              <mxPoint x="545" y="135" />
            </Array>
          </mxGeometry>
        </mxCell>
        <mxCell id="9pPh57trMKF2vFBdPvX8-12" value="負責人簽核(所有)" style="rhombus;whiteSpace=wrap;html=1;fontStyle=1" vertex="1" parent="1">
          <mxGeometry x="375" y="220" width="130" height="80" as="geometry" />
        </mxCell>
        <mxCell id="9pPh57trMKF2vFBdPvX8-42" style="edgeStyle=orthogonalEdgeStyle;rounded=0;orthogonalLoop=1;jettySize=auto;html=1;exitX=0.5;exitY=1;exitDx=0;exitDy=0;entryX=0.5;entryY=0;entryDx=0;entryDy=0;" edge="1" parent="1" source="9pPh57trMKF2vFBdPvX8-17" target="9pPh57trMKF2vFBdPvX8-20">
          <mxGeometry relative="1" as="geometry" />
        </mxCell>
        <mxCell id="9pPh57trMKF2vFBdPvX8-45" style="edgeStyle=orthogonalEdgeStyle;rounded=0;orthogonalLoop=1;jettySize=auto;html=1;exitX=1;exitY=0.5;exitDx=0;exitDy=0;entryX=1;entryY=0.5;entryDx=0;entryDy=0;" edge="1" parent="1" source="9pPh57trMKF2vFBdPvX8-17" target="9pPh57trMKF2vFBdPvX8-12">
          <mxGeometry relative="1" as="geometry">
            <Array as="points">
              <mxPoint x="545" y="370" />
              <mxPoint x="545" y="260" />
            </Array>
          </mxGeometry>
        </mxCell>
        <mxCell id="9pPh57trMKF2vFBdPvX8-17" value="協作單位簽核&lt;br&gt;(所有;副理以上)" style="rhombus;whiteSpace=wrap;html=1;fontStyle=1" vertex="1" parent="1">
          <mxGeometry x="375" y="330" width="130" height="80" as="geometry" />
        </mxCell>
        <mxCell id="9pPh57trMKF2vFBdPvX8-44" style="edgeStyle=orthogonalEdgeStyle;rounded=0;orthogonalLoop=1;jettySize=auto;html=1;exitX=1;exitY=0.5;exitDx=0;exitDy=0;entryX=1;entryY=0.5;entryDx=0;entryDy=0;" edge="1" parent="1" source="9pPh57trMKF2vFBdPvX8-20" target="9pPh57trMKF2vFBdPvX8-17">
          <mxGeometry relative="1" as="geometry">
            <Array as="points">
              <mxPoint x="545" y="480" />
              <mxPoint x="545" y="370" />
            </Array>
          </mxGeometry>
        </mxCell>
        <mxCell id="9pPh57trMKF2vFBdPvX8-56" style="edgeStyle=orthogonalEdgeStyle;rounded=0;orthogonalLoop=1;jettySize=auto;html=1;exitX=0.5;exitY=1;exitDx=0;exitDy=0;entryX=0.5;entryY=0;entryDx=0;entryDy=0;" edge="1" parent="1" source="9pPh57trMKF2vFBdPvX8-20" target="9pPh57trMKF2vFBdPvX8-55">
          <mxGeometry relative="1" as="geometry" />
        </mxCell>
        <mxCell id="9pPh57trMKF2vFBdPvX8-20" value="Q000老闆簽核並分發&lt;br&gt;(副理以上)" style="rhombus;whiteSpace=wrap;html=1;fontStyle=1" vertex="1" parent="1">
          <mxGeometry x="355" y="440" width="170" height="80" as="geometry" />
        </mxCell>
        <mxCell id="9pPh57trMKF2vFBdPvX8-40" style="edgeStyle=orthogonalEdgeStyle;rounded=0;orthogonalLoop=1;jettySize=auto;html=1;entryX=0.5;entryY=0;entryDx=0;entryDy=0;" edge="1" parent="1" source="9pPh57trMKF2vFBdPvX8-35" target="9pPh57trMKF2vFBdPvX8-12">
          <mxGeometry relative="1" as="geometry" />
        </mxCell>
        <mxCell id="9pPh57trMKF2vFBdPvX8-35" value="&lt;span style=&quot;font-weight: 700;&quot;&gt;Deltaflow需求申請&lt;/span&gt;" style="swimlane;fontStyle=0;childLayout=stackLayout;horizontal=1;startSize=40;horizontalStack=0;resizeParent=1;resizeParentMax=0;resizeLast=0;collapsible=1;marginBottom=0;whiteSpace=wrap;html=1;" vertex="1" parent="1">
          <mxGeometry x="370" y="30" width="140" height="160" as="geometry">
            <mxRectangle x="425" y="60" width="140" height="40" as="alternateBounds" />
          </mxGeometry>
        </mxCell>
        <mxCell id="9pPh57trMKF2vFBdPvX8-36" value="&lt;span style=&quot;font-weight: 700;&quot;&gt;1.填寫需求表單&lt;/span&gt;&lt;div style=&quot;font-weight: 700;&quot;&gt;並填寫案件負責人&lt;br&gt;&lt;span style=&quot;background-color: initial;&quot;&gt;(負責人需&amp;gt;=1人)&lt;/span&gt;&lt;/div&gt;" style="text;strokeColor=none;fillColor=none;align=center;verticalAlign=middle;spacingLeft=4;spacingRight=4;overflow=hidden;points=[[0,0.5],[1,0.5]];portConstraint=eastwest;rotatable=0;whiteSpace=wrap;html=1;" vertex="1" parent="9pPh57trMKF2vFBdPvX8-35">
          <mxGeometry y="40" width="140" height="50" as="geometry" />
        </mxCell>
        <mxCell id="9pPh57trMKF2vFBdPvX8-37" value="&lt;span style=&quot;font-weight: 700;&quot;&gt;2.填寫需求內容&lt;/span&gt;" style="text;strokeColor=none;fillColor=none;align=center;verticalAlign=middle;spacingLeft=4;spacingRight=4;overflow=hidden;points=[[0,0.5],[1,0.5]];portConstraint=eastwest;rotatable=0;whiteSpace=wrap;html=1;" vertex="1" parent="9pPh57trMKF2vFBdPvX8-35">
          <mxGeometry y="90" width="140" height="30" as="geometry" />
        </mxCell>
        <mxCell id="9pPh57trMKF2vFBdPvX8-38" value="&lt;span style=&quot;font-weight: 700;&quot;&gt;3.填寫協作單位&lt;br&gt;(協作單位需&amp;gt;=1)&lt;/span&gt;" style="text;strokeColor=none;fillColor=none;align=center;verticalAlign=middle;spacingLeft=4;spacingRight=4;overflow=hidden;points=[[0,0.5],[1,0.5]];portConstraint=eastwest;rotatable=0;whiteSpace=wrap;html=1;" vertex="1" parent="9pPh57trMKF2vFBdPvX8-35">
          <mxGeometry y="120" width="140" height="40" as="geometry" />
        </mxCell>
        <mxCell id="9pPh57trMKF2vFBdPvX8-47" value="&lt;font style=&quot;font-size: 13px;&quot;&gt;&lt;b&gt;Reject&lt;/b&gt;&lt;/font&gt;&lt;div&gt;&lt;font style=&quot;font-size: 13px;&quot;&gt;&lt;b&gt;(返回上一層)&lt;/b&gt;&lt;/font&gt;&lt;/div&gt;" style="text;html=1;align=center;verticalAlign=middle;resizable=0;points=[];autosize=1;strokeColor=none;fillColor=none;" vertex="1" parent="1">
          <mxGeometry x="545" y="180" width="100" height="40" as="geometry" />
        </mxCell>
        <mxCell id="9pPh57trMKF2vFBdPvX8-50" value="&lt;font style=&quot;font-size: 13px;&quot;&gt;&lt;b&gt;Reject&lt;/b&gt;&lt;/font&gt;&lt;div&gt;&lt;font style=&quot;font-size: 13px;&quot;&gt;&lt;b&gt;(返回上一層)&lt;/b&gt;&lt;/font&gt;&lt;/div&gt;" style="text;html=1;align=center;verticalAlign=middle;resizable=0;points=[];autosize=1;strokeColor=none;fillColor=none;" vertex="1" parent="1">
          <mxGeometry x="545" y="300" width="100" height="40" as="geometry" />
        </mxCell>
        <mxCell id="9pPh57trMKF2vFBdPvX8-51" value="&lt;font style=&quot;font-size: 13px;&quot;&gt;&lt;b&gt;Reject&lt;/b&gt;&lt;/font&gt;&lt;div&gt;&lt;font style=&quot;font-size: 13px;&quot;&gt;&lt;b&gt;(返回上一層)&lt;/b&gt;&lt;/font&gt;&lt;/div&gt;" style="text;html=1;align=center;verticalAlign=middle;resizable=0;points=[];autosize=1;strokeColor=none;fillColor=none;" vertex="1" parent="1">
          <mxGeometry x="545" y="410" width="100" height="40" as="geometry" />
        </mxCell>
        <mxCell id="9pPh57trMKF2vFBdPvX8-52" value="&lt;span style=&quot;font-size: 13px;&quot;&gt;&lt;b&gt;Approve&lt;/b&gt;&lt;/span&gt;" style="text;html=1;align=center;verticalAlign=middle;resizable=0;points=[];autosize=1;strokeColor=none;fillColor=none;" vertex="1" parent="1">
          <mxGeometry x="430" y="295" width="80" height="30" as="geometry" />
        </mxCell>
        <mxCell id="9pPh57trMKF2vFBdPvX8-53" value="&lt;span style=&quot;font-size: 13px;&quot;&gt;&lt;b&gt;Approve&lt;/b&gt;&lt;/span&gt;" style="text;html=1;align=center;verticalAlign=middle;resizable=0;points=[];autosize=1;strokeColor=none;fillColor=none;" vertex="1" parent="1">
          <mxGeometry x="432" y="405" width="80" height="30" as="geometry" />
        </mxCell>
        <mxCell id="9pPh57trMKF2vFBdPvX8-54" value="&lt;span style=&quot;font-size: 13px;&quot;&gt;&lt;b&gt;Approve&lt;/b&gt;&lt;/span&gt;" style="text;html=1;align=center;verticalAlign=middle;resizable=0;points=[];autosize=1;strokeColor=none;fillColor=none;" vertex="1" parent="1">
          <mxGeometry x="432" y="190" width="80" height="30" as="geometry" />
        </mxCell>
        <mxCell id="9pPh57trMKF2vFBdPvX8-62" style="edgeStyle=orthogonalEdgeStyle;rounded=0;orthogonalLoop=1;jettySize=auto;html=1;exitX=0;exitY=0.5;exitDx=0;exitDy=0;entryX=0;entryY=0.5;entryDx=0;entryDy=0;" edge="1" parent="1" source="9pPh57trMKF2vFBdPvX8-55" target="9pPh57trMKF2vFBdPvX8-20">
          <mxGeometry relative="1" as="geometry" />
        </mxCell>
        <mxCell id="9pPh57trMKF2vFBdPvX8-76" style="edgeStyle=orthogonalEdgeStyle;rounded=0;orthogonalLoop=1;jettySize=auto;html=1;exitX=0.5;exitY=1;exitDx=0;exitDy=0;entryX=0.5;entryY=0;entryDx=0;entryDy=0;" edge="1" parent="1" source="9pPh57trMKF2vFBdPvX8-55" target="9pPh57trMKF2vFBdPvX8-75">
          <mxGeometry relative="1" as="geometry" />
        </mxCell>
        <mxCell id="9pPh57trMKF2vFBdPvX8-55" value="需求執行" style="rhombus;whiteSpace=wrap;html=1;fontStyle=1" vertex="1" parent="1">
          <mxGeometry x="375" y="550" width="130" height="80" as="geometry" />
        </mxCell>
        <mxCell id="9pPh57trMKF2vFBdPvX8-59" value="&lt;span style=&quot;font-size: 13px;&quot;&gt;&lt;b&gt;Approve&lt;/b&gt;&lt;/span&gt;" style="text;html=1;align=center;verticalAlign=middle;resizable=0;points=[];autosize=1;strokeColor=none;fillColor=none;" vertex="1" parent="1">
          <mxGeometry x="432" y="517" width="80" height="30" as="geometry" />
        </mxCell>
        <mxCell id="9pPh57trMKF2vFBdPvX8-63" value="&lt;span style=&quot;font-size: 13px;&quot;&gt;&lt;b&gt;Reject&lt;br&gt;(分發對象變更)&lt;/b&gt;&lt;/span&gt;" style="text;html=1;align=center;verticalAlign=middle;resizable=0;points=[];autosize=1;strokeColor=none;fillColor=none;" vertex="1" parent="1">
          <mxGeometry x="220" y="517" width="110" height="40" as="geometry" />
        </mxCell>
        <mxCell id="9pPh57trMKF2vFBdPvX8-68" value="&lt;font style=&quot;font-size: 13px;&quot;&gt;&lt;b&gt;Reject&lt;/b&gt;&lt;/font&gt;&lt;div&gt;&lt;font style=&quot;font-size: 13px;&quot;&gt;&lt;b&gt;(返回上一層)&lt;/b&gt;&lt;/font&gt;&lt;/div&gt;" style="text;html=1;align=center;verticalAlign=middle;resizable=0;points=[];autosize=1;strokeColor=none;fillColor=none;" vertex="1" parent="1">
          <mxGeometry x="545" y="630" width="100" height="40" as="geometry" />
        </mxCell>
        <mxCell id="9pPh57trMKF2vFBdPvX8-77" style="edgeStyle=orthogonalEdgeStyle;rounded=0;orthogonalLoop=1;jettySize=auto;html=1;exitX=1;exitY=0.5;exitDx=0;exitDy=0;entryX=1;entryY=0.5;entryDx=0;entryDy=0;" edge="1" parent="1" source="9pPh57trMKF2vFBdPvX8-75" target="9pPh57trMKF2vFBdPvX8-55">
          <mxGeometry relative="1" as="geometry">
            <Array as="points">
              <mxPoint x="545" y="700" />
              <mxPoint x="545" y="590" />
            </Array>
          </mxGeometry>
        </mxCell>
        <mxCell id="9pPh57trMKF2vFBdPvX8-75" value="需求驗證與結案&lt;div&gt;(提供驗證Evidence)&lt;/div&gt;" style="rounded=1;whiteSpace=wrap;html=1;fontStyle=1" vertex="1" parent="1">
          <mxGeometry x="380" y="670" width="120" height="60" as="geometry" />
        </mxCell>
        <mxCell id="9pPh57trMKF2vFBdPvX8-78" value="&lt;span style=&quot;font-size: 13px;&quot;&gt;&lt;b&gt;Approve&lt;/b&gt;&lt;/span&gt;" style="text;html=1;align=center;verticalAlign=middle;resizable=0;points=[];autosize=1;strokeColor=none;fillColor=none;" vertex="1" parent="1">
          <mxGeometry x="432" y="631" width="80" height="30" as="geometry" />
        </mxCell>
        <mxCell id="9pPh57trMKF2vFBdPvX8-79" value="&lt;h1 style=&quot;margin-top: 0px;&quot;&gt;注意事項:&lt;/h1&gt;&lt;p&gt;&lt;span&gt;1.填寫案件負責人需注意務必將所有負責該需求的Owner列入，並在專案中擔任提供Proposal及資料的角色&lt;/span&gt;&lt;/p&gt;&lt;p&gt;&lt;span&gt;2.填寫協作單位時須注意務必將所有協作單位列入清單內，並在專案中擔任審查及監督的角色&lt;br&gt;&lt;br&gt;3.簽核關卡時，如有一人Reject，視為該關卡Approve失敗，需重新送簽(無需重新填單)&lt;/span&gt;&lt;/p&gt;&lt;p&gt;&lt;span&gt;4.需求完成時，會由提案者進行驗證，並附上相關Evidence以利結案作業&lt;/span&gt;&lt;/p&gt;&lt;p&gt;&lt;span&gt;4.由Q000老闆簽核並分發工程師執行專案後，如遇到同仁離職等因素，造成需求無法執行，會將專案返回並重新分發 (專案時程不受重發影響)&lt;/span&gt;&lt;/p&gt;&lt;p&gt;&lt;br&gt;&lt;/p&gt;&lt;p&gt;&lt;br&gt;&lt;/p&gt;" style="text;html=1;whiteSpace=wrap;overflow=hidden;rounded=0;fontStyle=1" vertex="1" parent="1">
          <mxGeometry x="700" y="50" width="180" height="410" as="geometry" />
        </mxCell>
      </root>
    </mxGraphModel>
  </diagram>
</mxfile>
